<svg width="19" height="19" viewBox="0 0 19 19" fill="none" xmlns="http://www.w3.org/2000/svg">
<path fill-rule="evenodd" clip-rule="evenodd" d="M10.9483 1.57104C10.4862 1.44314 10.0003 1.375 9.49995 1.375C6.73692 1.375 4.41574 3.45255 4.11061 6.19869L3.91127 7.99278C3.82488 8.77021 3.57184 9.51987 3.16939 10.1906L2.71178 10.9533L2.70047 10.9721L2.70045 10.9722C2.58625 11.1625 2.48257 11.3353 2.40464 11.4807C2.32662 11.6264 2.23195 11.82 2.1845 12.0441C1.97542 13.0318 2.53517 14.0204 3.48964 14.3492C3.70624 14.4239 3.92098 14.4423 4.086 14.4503C4.25083 14.4583 4.45233 14.4583 4.67429 14.4583H4.67435H4.6963H14.3036H14.3256H14.3256C14.5476 14.4583 14.7491 14.4583 14.9139 14.4503C15.0789 14.4423 15.2937 14.4239 15.5103 14.3492C16.4647 14.0204 17.0245 13.0318 16.8154 12.0441C16.768 11.82 16.6733 11.6264 16.5953 11.4807C16.5173 11.3353 16.4136 11.1625 16.2994 10.9721L16.2881 10.9533L15.8305 10.1906C15.6412 9.87512 15.485 9.54218 15.3636 9.1971C15.0071 9.28609 14.634 9.33333 14.25 9.33333C13.9194 9.33333 13.5971 9.29835 13.2865 9.23189C13.4645 9.9294 13.7433 10.5992 14.1155 11.2196L14.5731 11.9823C14.7023 12.1976 14.7802 12.328 14.8323 12.4252L14.8459 12.4511L14.8168 12.4527C14.7066 12.4581 14.5547 12.4583 14.3036 12.4583H4.6963C4.44521 12.4583 4.2933 12.4581 4.18313 12.4527L4.154 12.4511L4.16758 12.4252C4.21967 12.328 4.29759 12.1976 4.42677 11.9823L4.88438 11.2196C5.4348 10.3022 5.78089 9.27693 5.89903 8.21364L6.09838 6.41955C6.29096 4.68628 7.75601 3.375 9.49995 3.375C9.62494 3.375 9.74849 3.38174 9.87025 3.39488C10.0842 2.70247 10.4579 2.08019 10.9483 1.57104ZM13.6357 3.29021C13.0663 3.53007 12.6666 4.09335 12.6666 4.75C12.6666 5.62445 13.3755 6.33333 14.25 6.33333C14.4775 6.33333 14.6938 6.28534 14.8893 6.19893L14.8893 6.19869C14.766 5.08905 14.3135 4.08857 13.6357 3.29021Z" fill="#5F5F61"/>
<path d="M7.20593 13.9845C7.34124 14.742 7.63941 15.4114 8.05419 15.8888C8.46897 16.3662 8.97718 16.625 9.5 16.625C10.0228 16.625 10.531 16.3662 10.9458 15.8888C11.3606 15.4114 11.6588 14.742 11.7941 13.9845" stroke="#5F5F61" stroke-width="2" stroke-linecap="round"/>
<path d="M14.25 6.83329C15.4006 6.83329 16.3333 5.90055 16.3333 4.74996C16.3333 3.59937 15.4006 2.66663 14.25 2.66663C13.0994 2.66663 12.1666 3.59937 12.1666 4.74996C12.1666 5.90055 13.0994 6.83329 14.25 6.83329Z" fill="#5F5F61" stroke="#5F5F61"/>
</svg>
