<svg width="30" height="28" viewBox="0 0 30 28" fill="none" xmlns="http://www.w3.org/2000/svg">
<rect x="3.75" y="7" width="22.5" height="17.5" rx="2" stroke="#3470A2" stroke-width="2"/>
<path d="M3.75 11C3.75 9.11438 3.75 8.17157 4.33579 7.58579C4.92157 7 5.86438 7 7.75 7H22.25C24.1356 7 25.0784 7 25.6642 7.58579C26.25 8.17157 26.25 9.11438 26.25 11V11.6667H3.75V11Z" fill="#3470A2"/>
<path d="M8.75 3.5L8.75 7" stroke="#3470A2" stroke-width="2" stroke-linecap="round"/>
<path d="M21.25 3.5L21.25 7" stroke="#3470A2" stroke-width="2" stroke-linecap="round"/>
<rect x="8.75" y="14" width="5" height="2.33333" rx="0.5" fill="#3470A2"/>
<rect x="8.75" y="18.6666" width="5" height="2.33333" rx="0.5" fill="#3470A2"/>
<rect x="16.25" y="14" width="5" height="2.33333" rx="0.5" fill="#3470A2"/>
<rect x="16.25" y="18.6666" width="5" height="2.33333" rx="0.5" fill="#3470A2"/>
</svg>
