<svg width="32" height="32" viewBox="0 0 32 32" fill="none" xmlns="http://www.w3.org/2000/svg">
<path fill-rule="evenodd" clip-rule="evenodd" d="M16.3334 2.66663V9.99996L16.3334 10.0544V10.0544V10.0544V10.0544C16.3333 10.4785 16.3332 10.8906 16.3789 11.2305C16.4304 11.6137 16.5559 12.051 16.9192 12.4142C17.2824 12.7774 17.7197 12.9029 18.1029 12.9544C18.4428 13.0001 18.8549 13 19.2789 13H19.2789H19.279H19.279L19.3334 13H26.6667V21.3333C26.6667 25.1045 26.6667 26.9901 25.4951 28.1617C24.3236 29.3333 22.4379 29.3333 18.6667 29.3333H13.3334C9.56214 29.3333 7.67652 29.3333 6.50495 28.1617C5.33337 26.9901 5.33337 25.1045 5.33337 21.3333V10.6666C5.33337 6.89539 5.33337 5.00977 6.50495 3.8382C7.67652 2.66663 9.56214 2.66663 13.3334 2.66663H16.3334ZM18.3334 2.66784V9.99996C18.3334 10.4996 18.3355 10.7738 18.3611 10.964L18.3621 10.9713L18.3693 10.9723C18.5595 10.9978 18.8337 11 19.3334 11H26.6655C26.66 10.2564 26.6299 9.8185 26.4637 9.41737C26.2607 8.92732 25.8754 8.54196 25.1047 7.77123L25.1046 7.77121L25.1046 7.7712L21.5621 4.22872C20.7914 3.45798 20.406 3.0726 19.916 2.86961C19.5148 2.70346 19.0769 2.67331 18.3334 2.66784ZM11 17.3333C11 16.781 11.4478 16.3333 12 16.3333L20 16.3333C20.5523 16.3333 21 16.781 21 17.3333C21 17.8856 20.5523 18.3333 20 18.3333H12C11.4478 18.3333 11 17.8856 11 17.3333ZM12 21.6666C11.4478 21.6666 11 22.1143 11 22.6666C11 23.2189 11.4478 23.6666 12 23.6666H17.3334C17.8857 23.6666 18.3334 23.2189 18.3334 22.6666C18.3334 22.1143 17.8857 21.6666 17.3334 21.6666H12Z" fill="#3470A2"/>
</svg>
